<svg xmlns:dc="http://purl.org/dc/elements/1.1/" xmlns:cc="http://creativecommons.org/ns#" xmlns:rdf="http://www.w3.org/1999/02/22-rdf-syntax-ns#" xmlns:svg="http://www.w3.org/2000/svg" xmlns="http://www.w3.org/2000/svg" xmlns:sodipodi="http://sodipodi.sourceforge.net/DTD/sodipodi-0.dtd" xmlns:inkscape="http://www.inkscape.org/namespaces/inkscape" version="1.1" id="svg2" xml:space="preserve" sodipodi:docname="University Ben Gurion.ai" viewBox="12 12.03 160.29 590.95"><metadata id="metadata8"><rdf:RDF><cc:Work rdf:about=""><dc:format>image/svg+xml</dc:format><dc:type rdf:resource="http://purl.org/dc/dcmitype/StillImage"></dc:type></cc:Work></rdf:RDF></metadata><defs id="defs6"><clipPath clipPathUnits="userSpaceOnUse" id="clipPath18"><path d="M 12,416 H 129.216 V 602.979 H 12 Z" id="path16"></path></clipPath></defs><sodipodi:namedview pagecolor="#ffffff" bordercolor="#666666" borderopacity="1" objecttolerance="10" gridtolerance="10" guidetolerance="10" inkscape:pageopacity="0" inkscape:pageshadow="2" inkscape:window-width="640" inkscape:window-height="480" id="namedview4"></sodipodi:namedview><g id="g10" inkscape:groupmode="layer" inkscape:label="University Ben Gurion" transform="matrix(1.3333333,0,0,-1.3333333,0,816)"><g id="g12"><g id="g14" clip-path="url(#clipPath18)"><g id="g20" transform="translate(39.6484,481.232)"><path d="m 0,0 v -63.215 c -8.64,-0.361 -16.128,-0.073 -27.648,-2.017 v 2.017 C -2.592,-52.92 4.824,-30.312 -5.472,4.537 -3.6,3.024 -1.8,1.513 0,0 M 0,76.32 V 5.832 c -21.744,20.161 -23.688,42.696 -3.816,66.024 1.08,1.44 2.376,2.953 3.816,4.464 M 0,-63.215 V 0 C 6.048,-4.896 11.952,-9.576 17.568,-13.608 16.128,-36.792 12.096,-53.423 4.536,-62.928 2.952,-63.071 1.44,-63.144 0,-63.215 M 62.712,87.336 c -13.608,13.608 -34.776,27.072 -42.48,34.128 -1.872,0.721 -2.736,0.073 -2.592,-2.088 C 26.64,100.512 10.296,87.553 0,76.32 V 5.832 C 5.112,1.08 11.304,-3.527 18.576,-7.992 19.872,0.36 22.824,7.776 27.648,13.681 1.728,28.152 -3.816,47.088 12.528,69.768 c 8.352,9.937 14.112,20.665 14.328,33.265 0.144,1.655 1.008,2.015 2.52,1.007 C 60.984,77.473 72,47.592 38.088,17.641 23.256,4.681 16.776,-26.135 20.232,-62.135 L 46.8,-63.144 c -11.808,29.52 -11.376,54.432 4.104,68.976 4.392,2.809 8.352,5.688 11.808,8.568 z M 54.576,1.728 62.712,-0.144 v -61.848 c -1.584,0 -3.312,-0.072 -5.112,-0.143 -16.344,28.943 -19.44,51.263 -3.024,63.863 M 62.712,14.4 v 72.936 c 3.456,-3.527 6.48,-6.984 8.64,-10.368 C 88.2,51.84 83.736,31.968 62.712,14.4 m 0,-14.544 12.024,-2.735 V -4.68 c -6.12,-2.303 -9.864,-6.336 -11.232,-12.024 V -28.44 c 5.112,-13.104 14.184,-27.288 25.776,-33.191 l 0.288,-2.593 c -9.288,0.576 -16.2,2.376 -26.856,2.232 z" style="fill:#f46e1c;fill-opacity:1;fill-rule:evenodd;stroke:none" id="path22"></path></g></g></g></g></svg>